<?xml version="1.0" standalone="no"?>
<!DOCTYPE svg PUBLIC "-//W3C//DTD SVG 20010904//EN"
 "http://www.w3.org/TR/2001/REC-SVG-20010904/DTD/svg10.dtd">
<svg version="1.0" xmlns="http://www.w3.org/2000/svg"
 width="217" height="46" viewBox="0 0 217 46"
 preserveAspectRatio="xMidYMid meet">
<metadata>
Created by potrace 1.10, written by Peter Selinger 2001-2011
</metadata>
<g transform="translate(0.000000,57.000000) scale(0.100000,-0.100000)"
fill="#5F6FFF" stroke="none">
<path d="M1810 355 c-11 -13 -11 -19 3 -32 21 -21 49 -9 45 19 -4 28 -30 35
-48 13z"/>
<path d="M71 340 c0 -3 46 -27 101 -55 l100 -49 -4 -41 c-3 -22 -8 -48 -12
-57 -7 -16 -4 -17 25 -12 43 9 41 6 29 38 -20 53 -4 74 87 120 l85 42 -54 13
-53 12 -34 -37 c-33 -36 -34 -36 -29 -10 6 32 -21 37 -29 6 -7 -27 -14 -25
-48 10 -28 29 -33 31 -97 28 -37 -2 -68 -5 -67 -8z m109 -14 c0 -11 -19 -15
-25 -6 -3 5 1 10 9 10 9 0 16 -2 16 -4z m30 -22 c0 -14 -12 -19 -23 -8 -9 9 4
35 14 28 5 -3 9 -12 9 -20z m200 12 c0 -2 -7 -6 -15 -10 -8 -3 -15 -1 -15 4 0
6 7 10 15 10 8 0 15 -2 15 -4z m-175 -26 c3 -5 1 -10 -4 -10 -6 0 -11 5 -11
10 0 6 2 10 4 10 3 0 8 -4 11 -10z m69 -19 c10 -16 -18 -30 -31 -16 -10 11
-10 15 0 18 19 8 25 8 31 -2z"/>
<path d="M632 248 l3 -92 60 3 c96 4 138 47 114 118 -14 43 -53 63 -124 63
l-56 0 3 -92z m48 52 c0 -5 -4 -10 -10 -10 -5 0 -10 5 -10 10 0 6 5 10 10 10
6 0 10 -4 10 -10z m109 -59 c-1 -24 -2 -24 -8 5 -4 17 -11 37 -15 45 -4 8 0 5
8 -5 9 -11 16 -31 15 -45z m-41 10 c4 -35 -9 -51 -40 -51 -15 0 -18 9 -18 46
0 44 1 45 28 42 23 -3 28 -8 30 -37z m-81 -33 c-3 -7 -5 -2 -5 12 0 14 2 19 5
13 2 -7 2 -19 0 -25z m13 -28 c0 -5 -4 -10 -10 -10 -5 0 -10 5 -10 10 0 6 5
10 10 10 6 0 10 -4 10 -10z"/>
<path d="M1066 253 c-20 -49 -36 -90 -36 -93 0 -11 54 -3 58 8 5 15 79 16 84
1 2 -7 19 -13 36 -14 18 -2 32 0 30 4 -2 3 -19 46 -38 94 -33 83 -36 87 -66
87 -30 0 -33 -4 -68 -87z m84 49 c0 -4 -9 -8 -20 -9 -11 -1 -18 2 -15 8 7 11
35 12 35 1z m-6 -54 c5 -24 3 -28 -14 -28 -23 0 -23 0 -10 36 12 31 15 30 24
-8z m44 -49 c-7 -20 -27 9 -21 31 l6 24 9 -24 c5 -13 7 -27 6 -31z m-99 5
c-15 -18 -22 -13 -13 10 3 9 10 13 16 10 5 -3 4 -12 -3 -20z"/>
<path d="M2090 310 c0 -11 -4 -20 -10 -20 -5 0 -10 -9 -10 -20 0 -11 5 -20 10
-20 6 0 10 -15 10 -33 0 -50 38 -79 83 -61 18 7 10 44 -9 44 -9 0 -14 11 -14
30 0 22 4 28 15 24 10 -4 15 0 15 15 0 12 -6 21 -15 21 -8 0 -15 9 -15 20 0
16 -7 20 -30 20 -23 0 -30 -4 -30 -20z m46 -31 c10 -17 -13 -36 -27 -22 -12
12 -4 33 11 33 5 0 12 -5 16 -11z m-7 -71 c0 -28 -2 -30 -9 -13 -12 28 -12 45
0 45 6 0 10 -15 9 -32z"/>
<path d="M2845 310 c5 -14 2 -20 -9 -20 -20 0 -21 -29 -1 -36 10 -4 12 -15 9
-34 -10 -47 45 -86 84 -62 16 10 5 42 -14 42 -8 0 -14 10 -14 25 0 18 5 25 20
25 13 0 20 7 20 20 0 13 -7 20 -20 20 -13 0 -20 7 -20 20 0 16 -7 20 -31 20
-26 0 -29 -3 -24 -20z m45 -40 c0 -11 -4 -20 -9 -20 -13 0 -32 26 -24 33 13
14 33 6 33 -13z"/>
<path d="M840 228 l0 -73 30 0 c29 0 30 2 30 43 0 35 4 45 20 49 13 3 20 14
20 29 0 26 -10 30 -28 12 -9 -9 -12 -9 -12 0 0 7 -13 12 -30 12 l-30 0 0 -72z
m50 35 c-1 -5 -7 -19 -15 -33 l-15 -25 2 33 c1 18 8 32 15 32 7 0 13 -3 13 -7z"/>
<path d="M1260 200 l0 -100 31 0 c30 0 31 1 26 34 -5 34 -5 35 18 24 52 -23
100 42 75 102 -14 34 -25 38 -97 39 l-53 1 0 -100z m38 45 c-8 -18 -8 -28 1
-39 7 -8 10 -20 6 -26 -14 -22 -22 -8 -22 40 0 35 4 50 13 50 11 0 11 -5 2
-25z m57 -16 c0 -15 -7 -25 -17 -27 -13 -3 -18 3 -18 21 0 13 3 27 7 31 13 12
28 -1 28 -25z m32 -1 c-3 -8 -6 -5 -6 6 -1 11 2 17 5 13 3 -3 4 -12 1 -19z
m-5 -40 c-7 -7 -12 -8 -12 -2 0 14 12 26 19 19 2 -3 -1 -11 -7 -17z"/>
<path d="M1443 199 l-1 -99 29 0 c26 0 29 3 29 35 0 33 1 34 25 23 19 -9 29
-8 50 6 20 13 25 24 25 60 0 58 -19 73 -95 74 l-60 1 -2 -100z m46 64 c0 -5
-4 -17 -9 -28 -8 -18 -9 -17 -9 8 -1 15 4 27 9 27 6 0 10 -3 9 -7z m55 -46
c-3 -9 -13 -17 -20 -17 -21 0 -29 27 -13 46 10 13 14 13 26 1 8 -7 11 -21 7
-30z m-62 -54 c-10 -28 -10 -28 -11 12 -1 28 2 36 10 28 8 -8 8 -19 1 -40z
m79 24 c-10 -9 -11 -8 -5 6 3 10 9 15 12 12 3 -3 0 -11 -7 -18z"/>
<path d="M1642 277 c-27 -29 -28 -67 -3 -98 14 -18 29 -24 61 -24 49 0 80 29
80 74 0 64 -93 96 -138 48z m21 -27 c-3 -12 -8 -19 -11 -16 -5 6 5 36 12 36 2
0 2 -9 -1 -20z m87 -15 c0 -5 -5 -3 -10 5 -5 8 -10 20 -10 25 0 6 5 3 10 -5 5
-8 10 -19 10 -25z m-32 -7 c-2 -13 -10 -23 -18 -23 -8 0 -16 10 -18 23 -3 17
2 22 18 22 16 0 21 -5 18 -22z"/>
<path d="M1807 228 c1 -71 1 -72 28 -72 27 0 27 1 28 72 l2 72 -30 0 -30 0 2
-72z m30 0 c-3 -8 -6 -5 -6 6 -1 11 2 17 5 13 3 -3 4 -12 1 -19z"/>
<path d="M1900 228 l0 -73 30 -1 c29 -1 30 0 30 47 0 36 4 49 14 49 11 0 16
-14 18 -47 3 -43 5 -46 31 -48 27 -1 27 0 27 60 0 34 -5 66 -12 73 -15 15 -51
15 -66 0 -9 -9 -12 -9 -12 0 0 7 -13 12 -30 12 l-30 0 0 -72z m50 35 c0 -5 -5
-15 -10 -23 -8 -12 -10 -11 -10 8 0 12 5 22 10 22 6 0 10 -3 10 -7z m80 -33
c0 -13 -1 -13 -10 0 -5 8 -10 22 -10 30 0 13 1 13 10 0 5 -8 10 -22 10 -30z"/>

</g>
</svg>
